<svg width="96" height="96" viewBox="0 0 96 96" fill="none" xmlns="http://www.w3.org/2000/svg">
<rect width="96" height="96" fill="#292A2F"/>
<g clip-path="url(#clip0_314_44)">
<g clip-path="url(#clip1_314_44)">
<circle cx="27" cy="21" r="2" fill="#FFAA24"/>
<circle cx="27" cy="27" r="2" fill="#FFAA24"/>
<circle cx="27" cy="33" r="2" fill="#FFAA24"/>
<circle cx="27" cy="39" r="2" fill="#FFAA24"/>
<circle cx="27" cy="45" r="2" fill="#FFAA24"/>
<circle cx="27" cy="51" r="2" fill="#FFAA24"/>
<circle cx="27" cy="57" r="2" fill="#FFAA24"/>
<circle cx="27" cy="63" r="2" fill="#FFAA24"/>
</g>
<g clip-path="url(#clip2_314_44)">
<circle cx="33" cy="21" r="2" fill="#FFAA24"/>
<circle cx="33" cy="27" r="2" fill="#FFAA24"/>
<circle cx="33" cy="33" r="2" fill="#FFAA24"/>
<circle cx="33" cy="39" r="2" fill="#FFAA24"/>
<circle cx="33" cy="45" r="2" fill="#FFAA24"/>
<circle cx="33" cy="51" r="2" fill="#FFAA24"/>
<circle cx="33" cy="57" r="2" fill="#FFAA24"/>
<circle cx="33" cy="63" r="2" fill="#FFAA24"/>
<circle cx="33" cy="69" r="2" fill="#FFAA24"/>
</g>
<g clip-path="url(#clip3_314_44)">
<circle cx="39" cy="63" r="2" fill="#FFAA24"/>
<circle cx="39" cy="69" r="2" fill="#FFAA24"/>
<circle cx="39" cy="75" r="2" fill="#FFAA24"/>
</g>
<g clip-path="url(#clip4_314_44)">
<circle cx="45" cy="75" r="2" fill="#FFAA24"/>
</g>
<g clip-path="url(#clip5_314_44)">
<circle cx="51" cy="69" r="2" fill="#FFAA24"/>
<circle cx="51" cy="75" r="2" fill="#FFAA24"/>
</g>
<g clip-path="url(#clip6_314_44)">
<circle cx="57" cy="63" r="2" fill="#FFAA24"/>
<circle cx="57" cy="69" r="2" fill="#FFAA24"/>
<circle cx="57" cy="75" r="2" fill="#FFAA24"/>
</g>
<g clip-path="url(#clip7_314_44)">
<circle cx="63" cy="21" r="2" fill="#FFAA24"/>
<circle cx="63" cy="27" r="2" fill="#FFAA24"/>
<circle cx="63" cy="33" r="2" fill="#FFAA24"/>
<circle cx="63" cy="39" r="2" fill="#FFAA24"/>
<circle cx="63" cy="45" r="2" fill="#FFAA24"/>
<circle cx="63" cy="51" r="2" fill="#FFAA24"/>
<circle cx="63" cy="57" r="2" fill="#FFAA24"/>
<circle cx="63" cy="63" r="2" fill="#FFAA24"/>
<circle cx="63" cy="69" r="2" fill="#FFAA24"/>
</g>
<g clip-path="url(#clip8_314_44)">
<circle cx="69" cy="21" r="2" fill="#FFAA24"/>
<circle cx="69" cy="27" r="2" fill="#FFAA24"/>
<circle cx="69" cy="33" r="2" fill="#FFAA24"/>
<circle cx="69" cy="39" r="2" fill="#FFAA24"/>
<circle cx="69" cy="45" r="2" fill="#FFAA24"/>
<circle cx="69" cy="51" r="2" fill="#FFAA24"/>
<circle cx="69" cy="57" r="2" fill="#FFAA24"/>
<circle cx="69" cy="63" r="2" fill="#FFAA24"/>
</g>
</g>
<defs>
<clipPath id="clip0_314_44">
<rect width="46" height="58" fill="white" transform="translate(25 19)"/>
</clipPath>
<clipPath id="clip1_314_44">
<rect width="4" height="76" fill="white" transform="translate(25 1)"/>
</clipPath>
<clipPath id="clip2_314_44">
<rect width="4" height="76" fill="white" transform="translate(31 1)"/>
</clipPath>
<clipPath id="clip3_314_44">
<rect width="4" height="76" fill="white" transform="translate(37 1)"/>
</clipPath>
<clipPath id="clip4_314_44">
<rect width="4" height="76" fill="white" transform="translate(43 1)"/>
</clipPath>
<clipPath id="clip5_314_44">
<rect width="4" height="76" fill="white" transform="translate(49 1)"/>
</clipPath>
<clipPath id="clip6_314_44">
<rect width="4" height="76" fill="white" transform="translate(55 1)"/>
</clipPath>
<clipPath id="clip7_314_44">
<rect width="4" height="76" fill="white" transform="translate(61 1)"/>
</clipPath>
<clipPath id="clip8_314_44">
<rect width="4" height="76" fill="white" transform="translate(67 1)"/>
</clipPath>
</defs>
</svg>
